<!-- Generated by IcoMoon.io -->
<svg version="1.1" xmlns="http://www.w3.org/2000/svg" width="11" height="18" viewBox="0 0 11 18">
<title>Engelberg-Logo_Favicon_White</title>
<path fill="#fff" d="M7.73 15.114h-4.499c-0.010 0.001-0.021 0.001-0.033 0.001-0.274 0-0.496-0.222-0.496-0.496s0.222-0.496 0.496-0.496c0.012 0 0.023 0 0.034 0.001l-0.002-0h4.499c0.010-0.001 0.021-0.001 0.033-0.001 0.274 0 0.496 0.222 0.496 0.496s-0.222 0.496-0.496 0.496c-0.012 0-0.023-0-0.034-0.001l0.002 0z"></path>
<path fill="#fff" d="M7.873 13.581h-4.787c-0.273 0-0.494-0.221-0.494-0.494s0.221-0.494 0.494-0.494h4.787c0.273 0 0.494 0.221 0.494 0.494s-0.221 0.494-0.494 0.494v0z"></path>
<path fill="#fff" d="M7.362 16.645h-3.772c-0.273 0-0.494-0.221-0.494-0.494s0.221-0.494 0.494-0.494h3.772c0.273 0 0.494 0.221 0.494 0.494s-0.221 0.494-0.494 0.494v0z"></path>
<path fill="#fff" d="M6.292 17.188c-0.023 0.431-0.378 0.772-0.813 0.772s-0.79-0.341-0.813-0.77l-0-0.002z"></path>
<path fill="#fff" d="M5.779 12.080c-0.081-0.001-0.154-0.036-0.203-0.093l-0-0c-0.043-0.047-0.070-0.111-0.070-0.18 0-0.013 0.001-0.025 0.003-0.038l-0 0.001 0.292-2.382c0-0.001 0-0.003 0-0.004 0-0.016-0.006-0.030-0.015-0.041l0 0c-0.010-0.011-0.025-0.017-0.041-0.017-0 0-0 0-0.001 0h-0.537c-0 0-0 0-0.001 0-0.016 0-0.030 0.007-0.041 0.017l-0 0c-0.010 0.010-0.015 0.023-0.015 0.038 0 0.002 0 0.004 0 0.006l-0-0 0.236 2.382c0.001 0.010 0.002 0.022 0.002 0.034 0 0.071-0.027 0.135-0.072 0.183l0-0c-0.050 0.056-0.122 0.091-0.202 0.091-0 0-0.001 0-0.001 0h-2.299c-0.145-0.001-0.263-0.114-0.273-0.257l-0-0.001-0.063-1.070c0-0.004 0-0.009 0-0.014 0-0.377-0.167-0.715-0.432-0.944l-0.002-0.001c-1.248-1.013-2.040-2.547-2.040-4.266 0-3.027 2.454-5.48 5.48-5.48s5.48 2.454 5.48 5.48c0 1.719-0.791 3.253-2.030 4.258l-0.010 0.008c-0.271 0.23-0.443 0.57-0.444 0.95v0l-0.063 1.083c-0.008 0.144-0.127 0.258-0.272 0.258-0 0-0 0-0 0h0zM6.041 8.843c0.003-0 0.007-0 0.010-0 0.082 0 0.156 0.036 0.206 0.093l0 0c0.043 0.047 0.070 0.111 0.070 0.18 0 0.013-0.001 0.025-0.003 0.038l0-0.001-0.292 2.382c-0 0.002-0 0.004-0 0.005 0 0.015 0.006 0.028 0.015 0.038l-0-0c0.010 0.011 0.023 0.017 0.039 0.017 0.001 0 0.002-0 0.002-0h1.817c0.001 0 0.001 0 0.002 0 0.029 0 0.053-0.023 0.054-0.052v-0l0.048-0.821c0.005-0.522 0.243-0.987 0.614-1.297l0.003-0.002 0.128-0.106c1.063-0.922 1.732-2.274 1.732-3.783 0-2.76-2.237-4.997-4.997-4.997s-4.997 2.237-4.997 4.997c0 1.525 0.683 2.891 1.76 3.807l0.007 0.006 0.091 0.076c0.38 0.317 0.619 0.791 0.619 1.32 0 0.001 0 0.002 0 0.003v-0l0.048 0.805c0.001 0.029 0.025 0.052 0.054 0.052 0 0 0 0 0 0h1.76c0 0 0 0 0.001 0 0.016 0 0.030-0.007 0.041-0.017l0-0c0.008-0.009 0.014-0.022 0.014-0.036 0-0.003-0-0.005-0.001-0.008l0 0-0.243-2.399c-0.001-0.009-0.002-0.019-0.002-0.029 0-0.072 0.028-0.138 0.073-0.188l-0 0c0.050-0.056 0.121-0.091 0.201-0.091h0zM6.474 7.295c0.148 0.004 0.267 0.124 0.267 0.273 0 0.004-0 0.008-0 0.011l0-0.001v0.528c-0.001 0.151-0.124 0.273-0.275 0.273 0 0 0 0-0 0h-1.973c-0.151 0-0.273-0.122-0.273-0.273v0-0.528c0-0 0-0.001 0-0.001 0-0.142 0.108-0.258 0.246-0.271l0.001-0c-1.299-0.037-1.845-0.561-2.081-0.994-0.127-0.249-0.201-0.543-0.201-0.854 0-0.364 0.101-0.703 0.278-0.993l-0.005 0.008c0.494-0.818 0.68-1.321 0.684-1.459 0.002-0.115 0.079-0.211 0.184-0.242l0.002-0c0.021-0.007 0.044-0.011 0.069-0.011h0c0.098 0.002 0.184 0.055 0.231 0.133l0.001 0.001c0.172 0.289 0.31 0.623 0.395 0.978l0.005 0.025c0 0.022 0 0.043 0 0.065 0.151-0.232 0.3-0.432 0.462-0.621l-0.007 0.008 0.074-0.084c0.234-0.268 0.853-0.979 0.972-1.436 0.023-0.1 0.102-0.177 0.202-0.197l0.002-0h0.048c0.001-0 0.003-0 0.005-0 0.086 0 0.163 0.041 0.211 0.105l0 0.001c0.277 0.524 0.455 1.14 0.491 1.794l0.001 0.012c0.002 0.016 0.003 0.034 0.003 0.052s-0.001 0.036-0.003 0.054l0-0.002c0.266-0.277 0.486-0.6 0.647-0.955l0.009-0.022c0.038-0.080 0.111-0.137 0.2-0.151l0.002-0h0.035c0 0 0 0 0 0 0.080 0 0.152 0.037 0.199 0.095l0 0c0.147 0.171 0.572 1.265 0.338 1.949 0.263-0.197 0.472-0.451 0.61-0.746l0.005-0.012c0.037-0.101 0.133-0.171 0.244-0.171 0 0 0 0 0.001 0h-0c0.007-0.001 0.015-0.002 0.023-0.002s0.016 0.001 0.024 0.002l-0.001-0c0.124 0.022 0.218 0.129 0.218 0.258 0 0.009-0 0.018-0.001 0.027l0-0.001c-0.013 1.206-0.329 2.111-0.938 2.691-0.481 0.457-0.838 0.693-1.639 0.693zM8.412 4.8c-0.013 0-0.025 0.005-0.035 0.013l0-0c-0.246 0.22-0.533 0.403-0.846 0.534l-0.020 0.007c-0.605 0.276-1.056 0.799-1.229 1.437l-0.004 0.015c0.010 0 0.022 0 0.033 0 0.559 0 1.068-0.21 1.454-0.556l-0.002 0.002c0.357-0.369 0.605-0.846 0.691-1.377l0.002-0.015c0.001-0.004 0.002-0.008 0.002-0.013 0-0.013-0.005-0.024-0.012-0.033l0 0c-0.009-0.012-0.022-0.021-0.036-0.024l-0-0zM3.432 3.718c-0-0-0.001-0-0.002-0-0.022 0-0.040 0.013-0.048 0.032l-0 0c-0.185 0.389-0.359 0.705-0.548 1.011l0.026-0.045c-0.12 0.206-0.191 0.453-0.191 0.716 0 0.229 0.054 0.446 0.149 0.639l-0.004-0.008c0.151 0.257 0.383 0.453 0.66 0.556l0.009 0.003h0.022c0.024-0.001 0.044-0.016 0.054-0.036l0-0c0.005-0.007 0.008-0.016 0.008-0.026s-0.003-0.019-0.008-0.026l0 0c-0.184-0.225-0.321-0.496-0.391-0.792l-0.003-0.013c-0.026-0.132-0.041-0.283-0.041-0.438 0-0.514 0.163-0.99 0.44-1.379l-0.005 0.007c-0.017-0.073-0.034-0.133-0.056-0.191l0.004 0.011c-0.010-0.016-0.028-0.027-0.048-0.027-0.007 0-0.013 0.001-0.019 0.003l0-0zM5.755 2.536c-0 0-0 0-0 0-0.020 0-0.037 0.010-0.047 0.026l-0 0c-0.253 0.386-0.514 0.722-0.799 1.035l0.006-0.007-0.069 0.080c-0.602 0.717-0.866 1.299-0.788 1.793 0.059 0.315 0.213 0.586 0.432 0.79l0.001 0.001c0.009 0.009 0.021 0.015 0.035 0.015h0c0.001 0 0.002 0 0.003 0 0.031 0 0.056-0.025 0.056-0.056 0-0.004-0-0.008-0.001-0.011l0 0c-0.152-1.381 0.946-2.295 1.358-2.637l0.048-0.041c-0.021-0.346-0.086-0.669-0.19-0.975l0.008 0.026c-0.004-0.022-0.021-0.039-0.043-0.043l-0-0zM7.34 3.369c-0 0-0 0-0.001 0-0.019 0-0.035 0.009-0.045 0.024l-0 0c-0.166 0.268-0.359 0.498-0.58 0.697l-0.003 0.002-0.043 0.035c-0.678 0.541-1.050 1.115-1.104 1.704-0.001 0.003-0.001 0.006-0.001 0.010 0 0.014 0.005 0.026 0.014 0.035l-0-0c0.011 0.012 0.026 0.020 0.044 0.020 0.001 0 0.001-0 0.002-0h-0c0 0 0.001 0 0.001 0 0.019 0 0.035-0.011 0.042-0.028l0-0c0.346-0.582 0.861-1.033 1.476-1.292l0.020-0.008c0.123-0.053 0.228-0.113 0.325-0.183l-0.005 0.003c0.106-0.284 0-0.745-0.069-0.996-0.010-0.018-0.028-0.030-0.050-0.030-0.005 0-0.011 0.001-0.015 0.002l0-0z"></path>
</svg>
